# xmcd CD database file
#
# Track frame offsets:
#	150
#	15860
#	35457
#	62734
#	79179
#	94535
#	111621
#	124830
#	140346
#	165981
#	184925
#	208334
#	234696
#	261378
#	278920
#
# Disc length: 4019 seconds
#
# Revision: 0
# Processed by: cddbd v1.5.2PL0 Copyright (c) Steve Scherf et al.
# Submitted via: CDex 1.51
#
DISCID=d50fb10f
DTITLE=Unknown - Salsa Explosion
DYEAR=1900
DGENRE=Salsa
TTITLE0=Che Che Cole
TTITLE1=El Todopoderoso
TTITLE2=O Mi Shango
TTITLE3=Pachito Eche
TTITLE4=Tu Lo Sientes?
TTITLE5=Cucala
TTITLE6=Mama Guela
TTITLE7=Brother Where Are You?
TTITLE8=Bilongo
TTITLE9=Guaguanco Arsenio
TTITLE10=Bomba Carambomba
TTITLE11=El Nuevo Barretto
TTITLE12=Anora Es El Tiempo
TTITLE13=A Mi Nena
TTITLE14=Todo Tiene Su Final
EXTD=
EXTT0=
EXTT1=
EXTT2=
EXTT3=
EXTT4=
EXTT5=
EXTT6=
EXTT7=
EXTT8=
EXTT9=
EXTT10=
EXTT11=
EXTT12=
EXTT13=
EXTT14=
PLAYORDER=
